<svg xmlns="http://www.w3.org/2000/svg" width="1400" height="900" viewBox="0 0 1400 900"><defs><linearGradient id="g" x1="0" y1="0" x2="1" y2="1"><stop stop-color="#f8efe3"/><stop offset="1" stop-color="#d8f0ef"/></linearGradient></defs><rect width="1400" height="900" fill="url(#g)"/><circle cx="180" cy="780" r="320" fill="#f0b36a" opacity=".45"/><circle cx="1220" cy="110" r="350" fill="#7cc7c4" opacity=".42"/><text x="110" y="145" font-family="Arial" font-size="58" font-weight="700" fill="#1f2933">Checklist web turística</text><g font-family="Arial" font-size="32" font-weight="700" fill="#1f2933"><rect x="130" y="210" width="80" height="55" rx="14" fill="#0e4f59"/><text x="151" y="248" fill="white">✓</text><text x="245" y="250">Propuesta clara</text><rect x="130" y="300" width="80" height="55" rx="14" fill="#0e4f59"/><text x="151" y="338" fill="white">✓</text><text x="245" y="340">CTA visible en móvil</text><rect x="130" y="390" width="80" height="55" rx="14" fill="#0e4f59"/><text x="151" y="428" fill="white">✓</text><text x="245" y="430">Ventajas reserva directa</text><rect x="130" y="480" width="80" height="55" rx="14" fill="#0e4f59"/><text x="151" y="518" fill="white">✓</text><text x="245" y="520">Dudas resueltas</text><rect x="130" y="570" width="80" height="55" rx="14" fill="#0e4f59"/><text x="151" y="608" fill="white">✓</text><text x="245" y="610">SEO local + IA</text><rect x="130" y="660" width="80" height="55" rx="14" fill="#0e4f59"/><text x="151" y="698" fill="white">✓</text><text x="245" y="700">Medición de oportunidades</text></g></svg>