<svg xmlns="http://www.w3.org/2000/svg" width="1400" height="900" viewBox="0 0 1400 900"><defs><linearGradient id="g" x1="0" y1="0" x2="1" y2="1"><stop stop-color="#f8efe3"/><stop offset="1" stop-color="#d8f0ef"/></linearGradient></defs><rect width="1400" height="900" fill="url(#g)"/><circle cx="180" cy="780" r="320" fill="#f0b36a" opacity=".45"/><circle cx="1220" cy="110" r="350" fill="#7cc7c4" opacity=".42"/><text x="105" y="145" font-family="Arial" font-size="54" font-weight="700" fill="#1f2933">Dónde se escapan las reservas</text><g font-family="Arial" font-size="22" font-weight="700" fill="#1f2933"><rect x="150" y="330" width="180" height="170" rx="24" fill="#fffdf8" stroke="#e2c59c" stroke-width="4"/><text x="172" y="395">Tráfico</text><text x="172" y="425">turístico</text><path d="M340 415h70" stroke="#0e4f59" stroke-width="8"/><path d="M420 415l-25-15v30z" fill="#0e4f59"/><rect x="430" y="330" width="180" height="170" rx="24" fill="#fffdf8" stroke="#e2c59c" stroke-width="4"/><text x="455" y="410">Web propia</text><path d="M620 415h70" stroke="#0e4f59" stroke-width="8"/><path d="M700 415l-25-15v30z" fill="#0e4f59"/><rect x="710" y="330" width="180" height="170" rx="24" fill="#fffdf8" stroke="#e2c59c" stroke-width="4"/><text x="735" y="395">Dudas /</text><text x="735" y="425">fricción</text><path d="M900 415h70" stroke="#0e4f59" stroke-width="8"/><path d="M980 415l-25-15v30z" fill="#0e4f59"/><rect x="990" y="330" width="180" height="170" rx="24" fill="#fffdf8" stroke="#e2c59c" stroke-width="4"/><text x="1015" y="395">Reserva</text><text x="1015" y="425">directa</text></g><g font-family="Arial" font-size="24" fill="#7a2e24"><path d="M800 500L640 580" stroke="#d55d4b" stroke-width="5"/><text x="560" y="615">CTA escondido</text><path d="M800 500L765 650" stroke="#d55d4b" stroke-width="5"/><text x="720" y="690">Sin confianza</text><path d="M800 500L920 580" stroke="#d55d4b" stroke-width="5"/><text x="895" y="615">Mensaje genérico</text></g></svg>