<svg xmlns="http://www.w3.org/2000/svg" width="1400" height="900" viewBox="0 0 1400 900"><defs><linearGradient id="g" x1="0" y1="0" x2="1" y2="1"><stop stop-color="#f8efe3"/><stop offset="1" stop-color="#d8f0ef"/></linearGradient></defs><rect width="1400" height="900" fill="url(#g)"/><circle cx="180" cy="780" r="320" fill="#f0b36a" opacity=".45"/><circle cx="1220" cy="110" r="350" fill="#7cc7c4" opacity=".42"/><text x="105" y="135" font-family="Arial" font-size="52" font-weight="700" fill="#1f2933">Web decorativa vs. web estratégica</text><g font-family="Arial"><rect x="120" y="200" width="520" height="480" rx="30" fill="#fffdf8" stroke="#cfd8dc" stroke-width="8"/><text x="155" y="275" font-size="38" font-weight="700" fill="#1f2933">Antes</text><rect x="155" y="300" width="450" height="70" fill="#cfd8dc"/><rect x="155" y="410" width="295" height="28" rx="10" fill="#e8e1d7"/><rect x="155" y="465" width="295" height="28" rx="10" fill="#e8e1d7"/><rect x="155" y="520" width="295" height="28" rx="10" fill="#e8e1d7"/><text x="155" y="610" font-size="24" fill="#7b7b7b">Texto genérico</text><rect x="760" y="200" width="520" height="480" rx="30" fill="#fffdf8" stroke="#7cc7c4" stroke-width="8"/><text x="795" y="275" font-size="38" font-weight="700" fill="#1f2933">Después</text><rect x="795" y="300" width="450" height="70" fill="#7cc7c4"/><rect x="795" y="410" width="295" height="28" rx="10" fill="#e8e1d7"/><rect x="795" y="465" width="295" height="28" rx="10" fill="#e8e1d7"/><rect x="795" y="520" width="295" height="28" rx="10" fill="#e8e1d7"/><text x="795" y="610" font-size="24" fill="#1f2933">Servicio · zona · pruebas</text><rect x="1090" y="575" width="155" height="50" rx="18" fill="#f0b36a"/><text x="1115" y="608" font-size="20" font-weight="700" fill="#222">Reservar</text></g></svg>