<svg xmlns="http://www.w3.org/2000/svg" width="1400" height="900" viewBox="0 0 1400 900"><defs><linearGradient id="g" x1="0" y1="0" x2="1" y2="1"><stop stop-color="#f8efe3"/><stop offset="1" stop-color="#d8f0ef"/></linearGradient></defs><rect width="1400" height="900" fill="url(#g)"/><circle cx="180" cy="780" r="320" fill="#f0b36a" opacity=".45"/><circle cx="1220" cy="110" r="350" fill="#7cc7c4" opacity=".42"/><rect x="170" y="180" width="840" height="520" rx="35" fill="#22252b"/><rect x="205" y="225" width="770" height="420" rx="18" fill="#fffdf8"/><rect x="205" y="225" width="770" height="95" fill="#0e4f59"/><text x="245" y="285" font-family="Arial" font-size="36" font-weight="700" fill="white">Costa Blanca Stays</text><rect x="740" y="252" width="180" height="42" rx="21" fill="#f0b36a"/><text x="777" y="280" font-family="Arial" font-size="20" font-weight="700" fill="#222">Reservar</text><text x="245" y="415" font-family="Arial" font-size="64" font-weight="700" fill="#1f2933">Reservas directas</text><text x="245" y="490" font-family="Arial" font-size="64" font-weight="700" fill="#1f2933">sin fricción</text><text x="245" y="555" font-family="Arial" font-size="28" fill="#4b5563">Web turística clara, local y preparada</text><text x="245" y="592" font-family="Arial" font-size="28" fill="#4b5563">para convertir visitas en consultas.</text><rect x="1040" y="300" width="205" height="410" rx="34" fill="#252934"/><rect x="1062" y="340" width="161" height="332" rx="22" fill="#fffdf8"/><rect x="1062" y="340" width="161" height="75" fill="#0e4f59"/><text x="1082" y="475" font-family="Arial" font-size="24" font-weight="700" fill="#1f2933">Costa Blanca</text><rect x="1082" y="575" width="120" height="45" rx="18" fill="#f0b36a"/><text x="1100" y="604" font-family="Arial" font-size="17" font-weight="700" fill="#222">Consultar</text></svg>